<?xml version="1.0" encoding="UTF-8" standalone="no" ?>
<!DOCTYPE svg PUBLIC "-//W3C//DTD SVG 1.1//EN" "http://www.w3.org/Graphics/SVG/1.1/DTD/svg11.dtd">
<svg xmlns="http://www.w3.org/2000/svg" xmlns:xlink="http://www.w3.org/1999/xlink" version="1.1" width="40" height="40" viewBox="47.27 47.27 40 40" xml:space="preserve">
<desc>Created with Fabric.js 5.2.4</desc>
<defs>
</defs>
<g transform="matrix(1 0 0 1 20 20)" id="0acbac71-d9b2-45e5-8202-498ea916cffb"  >
<rect style="stroke: none; stroke-width: 1; stroke-dasharray: none; stroke-linecap: butt; stroke-dashoffset: 0; stroke-linejoin: miter; stroke-miterlimit: 4; fill: rgb(255,255,255); fill-rule: nonzero; opacity: 1; visibility: hidden;" vector-effect="non-scaling-stroke"  x="-20" y="-20" rx="0" ry="0" width="40" height="40" />
</g>
<g transform="matrix(Infinity NaN NaN Infinity 0 0)" id="b8ae48c6-4754-4156-a669-e24f8a837197"  >
</g>
<g transform="matrix(1.83 0 0 1.83 67.27 67.27)" id="3be5a15c-7a48-4626-82b2-38825c0de3c8"  >
<path style="stroke: rgb(0,0,0); stroke-width: 0; stroke-dasharray: none; stroke-linecap: butt; stroke-dashoffset: 0; stroke-linejoin: miter; stroke-miterlimit: 4; fill: rgb(248,214,74); fill-rule: nonzero; opacity: 1;" vector-effect="non-scaling-stroke"  transform=" translate(-12, -12.25)" d="M 15.7993 3 C 17.2899 3 18.5894 4.01393 18.9518 5.45974 L 19.337 7 L 20.25 7 C 20.6297 7 20.9435 7.28215 20.9932 7.64823 L 21 7.75 C 21 8.1297 20.7178 8.44349 20.3518 8.49315 L 20.25 8.5 L 19.714 8.5 L 19.922 9.3265 C 20.5708 9.72128 21.0041 10.435 21.0041 11.25 L 21.0041 19.7468 C 21.0041 20.7133 20.2206 21.4968 19.2541 21.4968 L 17.75 21.4968 C 16.7835 21.4968 16 20.7133 16 19.7468 L 15.999 18.5 L 8.004 18.5 L 8.00408 19.7468 C 8.00408 20.7133 7.22058 21.4968 6.25408 21.4968 L 4.75 21.4968 C 3.7835 21.4968 3 20.7133 3 19.7468 L 3 11.25 C 3 10.4352 3.43316 9.72148 4.08177 9.32666 L 4.289 8.5 L 3.75 8.5 C 3.3703 8.5 3.05651 8.21785 3.00685 7.85177 L 3 7.75 C 3 7.3703 3.28215 7.05651 3.64823 7.00685 L 3.75 7 L 4.663 7 L 5.04898 5.46176 C 5.41068 4.01497 6.71062 3 8.20194 3 L 15.7993 3 Z M 6.504 18.5 L 4.499 18.5 L 4.5 19.7468 C 4.5 19.8848 4.61193 19.9968 4.75 19.9968 L 6.25408 19.9968 C 6.39215 19.9968 6.50408 19.8848 6.50408 19.7468 L 6.504 18.5 Z M 19.504 18.5 L 17.499 18.5 L 17.5 19.7468 C 17.5 19.8848 17.6119 19.9968 17.75 19.9968 L 19.2541 19.9968 C 19.3922 19.9968 19.5041 19.8848 19.5041 19.7468 L 19.504 18.5 Z M 13.7507 14 L 10.249 14 L 10.1472 14.0068 C 9.78115 14.0565 9.49899 14.3703 9.49899 14.75 C 9.49899 15.1297 9.78115 15.4435 10.1472 15.4932 L 10.249 15.5 L 13.7507 15.5 L 13.8525 15.4932 C 14.2186 15.4435 14.5007 15.1297 14.5007 14.75 C 14.5007 14.3358 14.165 14 13.7507 14 Z M 17 12 C 16.4477 12 16 12.4477 16 13 C 16 13.5522 16.4477 13.9999 17 13.9999 C 17.5522 13.9999 17.9999 13.5522 17.9999 13 C 17.9999 12.4477 17.5522 12 17 12 Z M 6.99997 12 C 6.4477 12 6 12.4477 6 13 C 6 13.5522 6.4477 13.9999 6.99997 13.9999 C 7.55225 13.9999 7.99995 13.5522 7.99995 13 C 7.99995 12.4477 7.55225 12 6.99997 12 Z M 15.7993 4.5 L 8.20194 4.5 C 7.39892 4.5 6.69895 5.04652 6.50419 5.82556 L 5.71058 9 L 18.2929 9 L 17.4968 5.82448 C 17.3017 5.04596 16.6019 4.5 15.7993 4.5 Z" stroke-linecap="round" />
</g>
<g transform="matrix(NaN NaN NaN NaN 0 0)"  >
<g style=""   >
</g>
</g>
</svg>