<?xml version="1.0" encoding="UTF-8" standalone="no" ?>
<!DOCTYPE svg PUBLIC "-//W3C//DTD SVG 1.1//EN" "http://www.w3.org/Graphics/SVG/1.1/DTD/svg11.dtd">
<svg xmlns="http://www.w3.org/2000/svg" xmlns:xlink="http://www.w3.org/1999/xlink" version="1.1" width="37" height="37" viewBox="0 0 37 37" xml:space="preserve">
<desc>Created with Fabric.js 5.2.4</desc>
<defs>
</defs>
<g transform="matrix(1 0 0 1 18.5 18.5)" id="9ee58c9c-750f-4132-ae01-d266255cdda4"  >
<rect style="stroke: none; stroke-width: 1; stroke-dasharray: none; stroke-linecap: butt; stroke-dashoffset: 0; stroke-linejoin: miter; stroke-miterlimit: 4; fill: rgb(255,255,255); fill-rule: nonzero; opacity: 1; visibility: hidden;" vector-effect="non-scaling-stroke"  x="-18.5" y="-18.5" rx="0" ry="0" width="37" height="37" />
</g>
<g transform="matrix(Infinity NaN NaN Infinity 0 0)" id="ab1c71e3-4e0e-4d9d-9ac6-e17db2cc662f"  >
</g>
<g transform="matrix(0.03 0 0 0.03 18.5 18.5)"  >
<g style="" vector-effect="non-scaling-stroke"   >
		<g transform="matrix(1 0 0 1 0 0)"  >
<rect style="stroke: none; stroke-width: 1; stroke-dasharray: none; stroke-linecap: butt; stroke-dashoffset: 0; stroke-linejoin: miter; stroke-miterlimit: 4; fill: rgb(255,255,255); fill-rule: nonzero; opacity: 1; visibility: hidden;" vector-effect="non-scaling-stroke"  x="-540" y="-540" rx="0" ry="0" width="1080" height="1080" />
</g>
		<g transform="matrix(33.33 0 0 33.33 175 -273.2)"  >
<path style="stroke: none; stroke-width: 1; stroke-dasharray: none; stroke-linecap: butt; stroke-dashoffset: 0; stroke-linejoin: miter; stroke-miterlimit: 4; fill: rgb(248,214,74); fill-rule: nonzero; opacity: 1;" vector-effect="non-scaling-stroke"  transform=" translate(-17.25, -4.68)" d="M 18.5 3 L 16 3 C 15.7239 3 15.5 3.22386 15.5 3.5 L 15.5 3.55891 L 19 6.35891 L 19 3.5 C 19 3.22386 18.7762 3 18.5 3 Z" stroke-linecap="round" />
</g>
		<g transform="matrix(33.33 0 0 33.33 0 -112.5)"  >
<path style="stroke: none; stroke-width: 1; stroke-dasharray: none; stroke-linecap: butt; stroke-dashoffset: 0; stroke-linejoin: miter; stroke-miterlimit: 4; fill: rgb(248,214,74); fill-rule: evenodd; opacity: 1;" vector-effect="non-scaling-stroke"  transform=" translate(-12, -9.5)" d="M 10.75 9.5 C 10.75 8.80964 11.3097 8.25 12 8.25 C 12.6904 8.25 13.25 8.80964 13.25 9.5 C 13.25 10.1904 12.6904 10.75 12 10.75 C 11.3097 10.75 10.75 10.1904 10.75 9.5 Z" stroke-linecap="round" />
</g>
		<g transform="matrix(33.33 0 0 33.33 0 1.56)"  >
<path style="stroke: none; stroke-width: 1; stroke-dasharray: none; stroke-linecap: butt; stroke-dashoffset: 0; stroke-linejoin: miter; stroke-miterlimit: 4; fill: rgb(248,214,74); fill-rule: evenodd; opacity: 1;" vector-effect="non-scaling-stroke"  transform=" translate(-12, -12.92)" d="M 20.75 10.9605 L 21.5315 11.5857 C 21.855 11.8444 22.3269 11.792 22.5857 11.4685 C 22.8444 11.1451 22.792 10.6731 22.4685 10.4143 L 14.3426 3.91362 C 12.9731 2.81796 11.027 2.81796 9.65742 3.91362 L 1.53151 10.4143 C 1.20806 10.6731 1.15562 11.1451 1.41438 11.4685 C 1.67313 11.792 2.1451 11.8444 2.46855 11.5857 L 3.25003 10.9605 L 3.25003 21.25 L 2.00003 21.25 C 1.58581 21.25 1.25003 21.5858 1.25003 22 C 1.25003 22.4142 1.58581 22.75 2.00003 22.75 L 22 22.75 C 22.4142 22.75 22.75 22.4142 22.75 22 C 22.75 21.5858 22.4142 21.25 22 21.25 L 20.75 21.25 L 20.75 10.9605 Z M 9.25003 9.5 C 9.25003 7.98122 10.4812 6.75 12 6.75 C 13.5188 6.75 14.75 7.98122 14.75 9.5 C 14.75 11.0188 13.5188 12.25 12 12.25 C 10.4812 12.25 9.25003 11.0188 9.25003 9.5 Z M 12.0494 13.25 C 12.7143 13.25 13.2871 13.2499 13.7459 13.3116 C 14.2375 13.3777 14.7088 13.5268 15.091 13.909 C 15.4733 14.2913 15.6223 14.7625 15.6884 15.2542 C 15.7462 15.6842 15.7498 16.2146 15.75 16.827 C 15.75 16.8679 15.75 16.9091 15.75 16.9506 L 15.75 21.25 L 14.25 21.25 L 14.25 17 C 14.25 16.2717 14.2484 15.8009 14.2018 15.454 C 14.1581 15.1287 14.0875 15.0268 14.0304 14.9697 C 13.9733 14.9126 13.8713 14.842 13.546 14.7982 C 13.1991 14.7516 12.7283 14.75 12 14.75 C 11.2717 14.75 10.8009 14.7516 10.4541 14.7982 C 10.1288 14.842 10.0268 14.9126 9.9697 14.9697 C 9.9126 15.0268 9.84199 15.1287 9.79826 15.454 C 9.75162 15.8009 9.75003 16.2717 9.75003 17 L 9.75003 21.25 L 8.25003 21.25 L 8.25003 16.9506 C 8.24999 16.2858 8.24996 15.7129 8.31163 15.2542 C 8.37773 14.7625 8.52679 14.2913 8.90904 13.909 C 9.29128 13.5268 9.76255 13.3777 10.2542 13.3116 C 10.7129 13.2499 11.2858 13.25 11.9507 13.25 L 12.0494 13.25 Z" stroke-linecap="round" />
</g>
		<g transform="matrix(33.33 0 0 33.33 0 -112.5)"  >
<path style="stroke: none; stroke-width: 1; stroke-dasharray: none; stroke-linecap: butt; stroke-dashoffset: 0; stroke-linejoin: miter; stroke-miterlimit: 4; fill: rgb(248,214,74); fill-rule: evenodd; opacity: 1;" vector-effect="non-scaling-stroke"  transform=" translate(-12, -9.5)" d="M 10.75 9.5 C 10.75 8.80964 11.3097 8.25 12 8.25 C 12.6904 8.25 13.25 8.80964 13.25 9.5 C 13.25 10.1904 12.6904 10.75 12 10.75 C 11.3097 10.75 10.75 10.1904 10.75 9.5 Z" stroke-linecap="round" />
</g>
</g>
</g>
</svg>