<svg id="loan_1_" data-name="loan (1)" xmlns="http://www.w3.org/2000/svg" width="38.709" height="37.335" viewBox="0 0 38.709 37.335">
  <path id="Path_176" data-name="Path 176" d="M38.646,46.155v5.981a29.021,29.021,0,0,0-4.826.2l-9.093,1.616a13.807,13.807,0,0,1-6.316-.417L5.027,48.948a1.527,1.527,0,0,1,.938-2.9c1.508.35,10.223,3.34,11.611,3.158h7.515a.745.745,0,1,0,0-1.49c-.393-.021-8.1.054-8.267-.052a2.033,2.033,0,0,1,2-2.227h4.759a.722.722,0,0,0,.484-.179,7.279,7.279,0,0,1,7.567-1.586,11.031,11.031,0,0,1,3.277,1.944,2.258,2.258,0,0,0,1.46.544Z" transform="translate(-4.019 -16.807)" fill="#f7d64a"/>
  <rect id="Rectangle_73" data-name="Rectangle 73" width="2.592" height="9.749" rx="1.077" transform="translate(36.117 27.464)" fill="#f7d64a"/>
  <path id="Path_177" data-name="Path 177" d="M43.968,43.87c.119.045.238.089.35.134a.582.582,0,0,1-.35-.134Z" transform="translate(-16.348 -17.009)" fill="#f7d64a"/>
  <path id="Path_178" data-name="Path 178" d="M27.283,5.187l-.745,2.361a9.921,9.921,0,0,0-2.123,1.9H20.55L19.209,5.179c-.037-.066.074-.214.179-.141a9.855,9.855,0,0,0,3.97,1.072A10.324,10.324,0,0,0,27.1,5.038C27.2,4.966,27.327,5.11,27.283,5.187Z" transform="translate(-8.705 -5.018)" fill="#f7d64a"/>
  <path id="Path_179" data-name="Path 179" d="M23.133,13.578a9.194,9.194,0,0,0-.909,2.182H19.469a1.091,1.091,0,1,1,0-2.182Z" transform="translate(-8.45 -7.66)" fill="#f7d64a"/>
  <path id="Exclusion_3" data-name="Exclusion 3" d="M15288.423-519.225a8.477,8.477,0,0,1-5.66-2.095,8.628,8.628,0,0,1-2.762-6.268,8.4,8.4,0,0,1,2.477-5.937,8.374,8.374,0,0,1,5.941-2.47,8.34,8.34,0,0,1,5.938,2.461,8.391,8.391,0,0,1,2.473,5.946,8.7,8.7,0,0,1-2.766,6.276A8.435,8.435,0,0,1,15288.423-519.225Zm-2.992-8.489a.243.243,0,0,0-.242.241v1.058a.269.269,0,0,0,.082.184l3.32,3.059a.226.226,0,0,0,.164.069h1.656a.247.247,0,0,0,.23-.159.235.235,0,0,0-.059-.266l-3.039-2.795a2.745,2.745,0,0,0,2.785-2.576h1.059a.237.237,0,0,0,.242-.241v-.805a.237.237,0,0,0-.242-.242h-1.184a3.089,3.089,0,0,0-.277-.644h1.461a.237.237,0,0,0,.242-.242v-.805a.247.247,0,0,0-.242-.241h-5.957a.248.248,0,0,0-.242.241v.9a.243.243,0,0,0,.242.242h1.723a1.448,1.448,0,0,1,1.219.552h-2.941a.243.243,0,0,0-.242.242v.805a.243.243,0,0,0,.242.241h3.2a1.384,1.384,0,0,1-1.5,1.185Z" transform="translate(-15265.108 538.366)" fill="#f7d64a"/>
  <path id="Path_181" data-name="Path 181" d="M32.193,34.4a8.628,8.628,0,0,0-8.178,1.869H19.525a3.505,3.505,0,0,0-3.493,3.351L7.1,36.937c-3.215-6.821,3.761-15.717,7.291-18.6.78.6,2.876.321,3.8.38A9.9,9.9,0,0,0,31.538,29.154a13.4,13.4,0,0,1,.655,5.243Z" transform="translate(-4.716 -9.13)" fill="#f7d64a"/>
</svg>
